<?xml version="1.0" encoding="UTF-8"?>
<!DOCTYPE svg PUBLIC "-//W3C//DTD SVG 1.1//EN" "http://www.w3.org/Graphics/SVG/1.1/DTD/svg11.dtd">
<!-- Creator: CorelDRAW 2019 (64-Bit) -->
<svg xmlns="http://www.w3.org/2000/svg" xml:space="preserve" width="884px" height="468px" version="1.1" style="shape-rendering:geometricPrecision; text-rendering:geometricPrecision; image-rendering:optimizeQuality; fill-rule:evenodd; clip-rule:evenodd"
viewBox="0 0 884 468.26"
 xmlns:xlink="http://www.w3.org/1999/xlink"
 xmlns:xodm="http://www.corel.com/coreldraw/odm/2003">
 <defs>
  <style type="text/css">
   <![CDATA[
    .fil0 {fill:#ED3237}
   ]]>
  </style>
 </defs>
 <g id="Layer_x0020_1">
  <metadata id="CorelCorpID_0Corel-Layer"/>
  <path class="fil0" d="M76.91 112c-9.84,-6.88 -29.42,0.37 -19.86,14.98 6.72,10.74 18.47,2.72 14.93,18.63 -1.11,4.87 -4.6,9.25 -10.98,11.59 -5.52,2.16 -11.47,3.92 -17.89,3.92 -9.16,0 -16.03,-1.29 -20.94,-3.64 -5.79,-2.77 -6.69,-4.78 -8.38,-12.86 3.79,-0.31 6.13,2.01 8.32,3.64 3.15,2.35 7.8,1.57 11.16,0.03 11.57,-5.42 8.36,-27.16 -6.69,-27.16 -6.69,0 -13.44,2.34 -17.61,8.29 -4.19,5.95 -5.05,13.48 -5.05,21.15 0,6.29 1.6,11.38 4.78,15.98 6.91,10.11 18.25,16.37 30.06,16.37 20.66,0 37.25,-12.02 43.36,-32.93 2.93,-10.05 4.19,-31.36 -5.21,-37.99zm265.32 26.58l0.09 0.09c25.87,30.87 55.66,31.12 88.1,10.95 2.01,2.84 5.21,4.69 8.85,4.69 3.55,0 6.69,-1.76 8.73,-4.51 32.31,19.99 62.04,19.65 87.85,-11.13l0.06 -0.09 -0.06 -0.06c-13.1,-12.74 -26.39,-19.06 -39.84,-19.92 6.57,-9.13 10.58,-20.97 11.66,-35.93l0 -0.12 -0.1 0c-13.75,-1.36 -25.19,0.71 -34.66,5.71 -2.52,-6.02 -8.57,-10.12 -15.04,-11.14 -3.21,-9.71 -9.47,-19.18 -19.28,-28.37l-0.09 -0.06 -0.06 0.06c-9.71,9.26 -15.88,18.78 -18.97,28.56 -6.16,1.2 -11.81,5.18 -14.21,10.95 -9.47,-5.03 -20.94,-7.07 -34.69,-5.71l-0.1 0 0.04 0.12c1.04,14.96 5.05,26.8 11.65,35.93 -13.47,0.86 -26.77,7.18 -39.87,19.92l-0.06 0.06zm169.72 1.23l0 0 0.03 0.06 -0.03 0.07c-19.52,22.45 -42.24,20.72 -66.97,3.57l-0.07 -0.03 0.07 -0.06 0.12 -0.09c17.88,-1.76 32.56,-6.91 43.23,-16.28 7.99,1.35 15.85,5.49 23.62,12.76l0 0zm-38.3 -40.55l0 0c5.03,-1.51 10.64,-2.09 17.03,-1.6l0.06 0 0 0.09c-0.77,8.57 -2.93,15.64 -6.36,21.4 -0.18,0.31 -0.33,0.62 -0.55,0.93l-0.03 0.09c-0.56,0.83 -1.11,1.63 -1.7,2.41l0 0.03c-0.15,0.18 -0.31,0.37 -0.46,0.58l-0.22 0.28c-0.15,0.18 -0.3,0.37 -0.46,0.55l-0.03 0.03c-0.22,0.28 -0.46,0.56 -0.68,0.81l-0.03 0.03c-0.15,0.18 -0.31,0.37 -0.46,0.52l-0.25 0.28 -0.03 0.03 -0.49 0.49 -0.25 0.28 0 0c-0.19,0.15 -0.34,0.34 -0.52,0.49l0 0 -0.28 0.25 -0.4 0.37 -0.22 0.22 -0.46 0.4 -0.28 0.24 -0.03 0.03 -0.49 0.41 -0.03 0.03 -0.28 0.24 -0.03 0 -0.46 0.37 -0.22 0.16 -0.46 0.37 0 0 -0.31 0.21 -0.06 0.06 -0.5 0.34 -0.03 0.03 -0.31 0.22 -0.03 0 -0.49 0.34 -0.31 0.22 -0.46 0.3 -0.43 0.25 -0.4 0.25 -0.5 0.31 -0.43 0.24 -0.52 0.28 -0.31 0.15 -0.62 0.34 -0.31 0.16 -0.58 0.31 -0.37 0.15 -0.59 0.28 -0.09 0.06c0,0 0,-0.03 0.03,-0.03l-0.18 0.09 0.15 -0.06c-4.99,2.28 -10.7,3.85 -16.99,4.78l-0.09 0 -0.09 0.03 -0.13 0 -0.31 0.06 -0.09 0 0 0 -0.49 0.06 -0.12 0.03 -0.1 0 -0.09 0.03 -0.12 0 0 0 -0.09 0.03 -0.1 0 -0.12 0 -0.8 0.13 -0.12 0 0 0 -0.09 0 -0.1 0.03 -0.74 0.06 -0.09 0.03 -0.12 0 -0.22 0.03 -0.09 0 -0.83 0.09 -0.12 0 -0.1 0 -0.12 0.03 -0.96 0.07 -0.09 0 -0.09 0.03 -0.09 0 0.03 -0.1c0,-0.03 0.03,-0.09 0.03,-0.12 14.34,-13.54 27.69,-27.07 30.37,-40.61l-0.01 0zm-35.09 -36.32l0 0 0.06 -0.06 0.06 0.06c4.88,4.78 8.64,9.62 11.35,14.58 -4.35,1.14 -8.35,3.89 -10.94,8.79 -2.75,-5.12 -6.97,-7.92 -11.57,-8.97 2.65,-4.87 6.29,-9.68 11.04,-14.4zm-13.23 26.27l0 0c6.88,0 10.3,3.24 13.76,9.65 3.42,-6.41 6.84,-9.65 13.72,-9.65 7.58,0 13.75,5.77 13.75,12.89 0,12.86 -13.75,25.72 -27.48,38.61 -13.75,-12.89 -27.47,-25.75 -27.47,-38.61 0,-7.12 6.13,-12.89 13.72,-12.89l0 0zm-37.87 8.45l0 0c6.39,-0.49 12.03,0.09 17.06,1.6 2.65,13.54 16,27.05 30.34,40.58 0,0.07 0.03,0.1 0.03,0.16l0.03 0.09 -0.06 0 -0.12 -0.03 -0.09 0 -0.87 -0.06 -0.09 0 -0.12 -0.03 0 0 -0.09 0 -0.13 0 -0.71 -0.09 -0.12 0 -0.09 0 -0.22 -0.03 -0.12 0 -0.09 -0.04 -0.74 -0.06 -0.09 -0.03 0 0 -0.19 0 -0.03 0 -0.09 -0.03 -0.09 0 -0.62 -0.09 -0.12 0 -0.31 -0.03 -0.09 -0.03 -0.22 -0.03 -0.09 0 -0.09 0 -0.22 -0.03 -0.09 -0.03 -0.09 0 -0.31 -0.07 -0.13 0 -0.09 -0.03 -0.09 0c-6.2,-0.92 -11.81,-2.43 -16.71,-4.68l-0.1 0 -0.06 -0.03 -0.12 -0.06 -0.06 -0.04 -0.06 -0.03 -0.56 -0.27 0.96 0.43 -2.28 -1.08 -0.03 -0.03 -0.37 -0.19 -0.59 -0.3 -0.46 -0.28 0.09 0.06 -0.12 -0.06 0.03 0 -0.31 -0.16 -0.62 -0.37 -0.24 -0.15c-0.19,-0.12 -0.4,-0.25 -0.62,-0.4l-0.21 -0.13 -0.62 -0.4 -0.22 -0.15 -0.61 -0.43 -0.19 -0.13c-0.21,-0.15 -0.43,-0.3 -0.62,-0.46l-0.21 -0.15 -0.56 -0.41 -0.27 -0.24 -0.56 -0.43 -0.18 -0.19c-0.19,-0.15 -0.37,-0.31 -0.56,-0.46l-0.18 -0.19 -0.53 -0.46 -0.21 -0.19c-0.16,-0.15 -0.31,-0.3 -0.5,-0.49l-0.28 -0.25 -0.4 -0.43 -0.27 -0.28 -0.37 -0.4 -0.34 -0.37 -0.34 -0.37 -0.34 -0.4 -0.28 -0.34 -0.31 -0.4 -0.33 -0.4 -0.34 -0.46 -0.06 -0.09 -0.19 -0.25 -0.34 -0.43 -0.03 -0.06 -0.18 -0.28 -0.04 0 -0.33 -0.53 -0.19 -0.27c-0.12,-0.16 -0.22,-0.34 -0.34,-0.53l-0.18 -0.27c-0.16,-0.28 -0.34,-0.56 -0.5,-0.84 -3.42,-5.76 -5.58,-12.83 -6.32,-21.4l0 -0.09 0.03 0 -0.02 0zm22.05 36.08l0 0 -0.06 -0.03 -0.18 -0.09 0.24 0.12zm-43.32 6.07l0 0c7.77,-7.27 15.63,-11.41 23.62,-12.76 10.67,9.37 25.35,14.52 43.23,16.28l0.13 0.09 0.06 0.06 -0.06 0.03c-24.74,17.15 -47.43,18.87 -66.98,-3.58l-0.03 -0.06 0.03 -0.06 0 0zm412.28 -8.54c-71.04,-78.85 -196.67,-131.27 -339.82,-131.27 -143.14,0 -268.77,52.42 -339.79,131.27 83.11,-63.86 204.54,-104.16 339.79,-104.16 135.25,0 256.69,40.3 339.82,104.16zm-296.71 167.38c-1.6,5.15 -2.8,8.82 -8.35,14.71 6.91,8.11 16.46,11.81 25.53,11.26 11.26,-0.71 21.74,-7.99 25.56,-21.68 -7.12,3.76 -16.83,6.2 -25.56,5.27 -7,-0.71 -13.35,-3.54 -17.18,-9.56zm332.21 -41.93c1.54,-7 7.89,-20.73 16.03,-20.73 5.46,0 12.62,5.96 22.17,5.96 14.84,0 25.41,-9.13 31.83,-32.75 -3.21,2.12 -6.85,3.2 -10.89,3.2 -5.55,0 -11.78,-1.82 -18.75,-5.52 -4.65,-2.46 -9.16,-5.52 -13.5,-9.19 -3.18,5.83 -9.44,13.11 -18.72,21.71 -2.93,2.75 -7.12,6.51 -12.64,11.14l0 64.75c3.54,-1.57 7.77,-3.82 10.94,-4.96 12.68,-4.47 45.58,-5.37 47.06,12.95 2.96,36.63 -59.85,38.11 -85.79,20.47l15.11 -34.44c-4.13,-11.66 -15.17,-25.75 -27.81,-31.02 -16.93,-7.1 -39.57,-10.27 -57.94,-2.62 -7.59,-5.86 -18.32,-10.03 -20.51,-16.69 1.42,-1.01 10.24,-4.65 15.08,-3.73 7.58,1.45 17.14,5.68 26.27,6.79 6.72,0.8 12.58,-0.44 18.66,-6.23 5.42,-5.12 9.99,-14.34 13.16,-26.61 -3.17,2.12 -6.97,3.2 -11.31,3.2 -5.52,0 -11.75,-1.82 -18.72,-5.52 -4.66,-2.46 -9.16,-5.52 -13.51,-9.19 -2.9,5.59 -11.78,14.4 -26.58,26.55 -4.66,3.67 -11.47,8.98 -20.48,15.79 12.12,5.61 15.02,12.77 21.9,24.27 -1.6,1.36 -3.33,2.56 -4.78,4.04 -15.39,15.73 -19.43,30.71 -19.74,52.88 -0.18,14.13 4.5,27.08 13.51,39.08 2.16,2.83 4.32,5.33 6.44,7.4 14,13.66 29.88,9.09 41.51,-5.65 7.28,-9.22 10.27,-19.18 10.27,-29.94 0,-9.8 -0.68,-19.36 -6.35,-25.99 -7.19,-8.48 -21.53,-11.54 -31.46,-2.35 -11.81,10.89 -9.93,28.28 7.28,28.46 2,0.03 4.38,-0.77 7.86,-2.89 4.88,-5.68 9.19,-5.28 10.09,-5.28 5.7,0 12.95,9.44 4.38,15.27 -3.77,3.05 -11.72,7.24 -24.03,7.15 -12.61,-0.12 -26.18,-14.46 -26.18,-25.87 0,-10.73 3.55,-19.03 9.35,-24.85 6.97,-6.76 18.13,-12.15 33.24,-12.15 18.01,0 31.67,4.87 41.26,14.77 2.9,3.08 7.06,6.72 9.99,13.47l-18.32 45.52c3.8,4.59 9.47,8.82 19.65,12.73 10.17,3.83 19.18,5.77 27.01,5.77 41.2,0 71.88,-33.24 71.88,-76.29 0,-36.05 -31.05,-60.16 -63.93,-42.86l0.01 0zm-794.2 -20.05c7.68,0 14,4.69 21.89,4.69 14.68,0 25.2,-9.13 31.52,-32.78 -3.18,2.16 -6.76,3.24 -10.73,3.24 -5.52,0 -11.69,-1.85 -18.6,-5.52 -4.56,-2.47 -9.06,-5.52 -13.35,-9.22 -4.07,7.37 -11.78,16.13 -23.1,26.24 -1.73,1.54 -4.19,3.55 -7.4,5.98l0 87.49c2.31,13.19 4.5,23.03 6.54,29.48 6.97,19.33 16.4,28.98 28.31,28.98 11.62,0 20.19,-8.26 25.71,-24.85 3.77,-11.35 5.65,-23.78 5.65,-37.28 0,-15.67 0.27,-27.02 -1.76,-34.08 -3.92,-11.41 -7.53,-15.45 -18.97,-16.03 -20.81,-1.08 -28.27,23.4 -17.7,39.1 2.87,4.22 6.85,6.44 14.4,6.44 -2.93,-14.34 17.18,-10.73 18.41,-5.46 3.18,13.73 -9.53,29.48 -22.69,29.48 -11.32,0 -20.29,-10.26 -24.36,-21.3 -2.62,-7.38 -3.92,-19.49 -3.92,-36.39 0,-9.19 0.19,-18.63 1.76,-25.5 1.57,-6.88 4.9,-12.09 8.39,-12.71l0 0zm207.62 149.56c-1.6,0 -3.54,0.09 -5.64,0.31 -11.04,1.11 -26.86,5.55 -26.86,17.27 0,11.71 15.54,15.6 26.86,10.91 3.05,-1.26 5.83,-3.17 7.89,-5.73 7.65,-9.56 14.71,-7.87 21.71,-5.18 -3.42,17.54 -15.42,26.92 -29.6,30.12 -16.65,3.8 -36.33,-0.89 -48.72,-10.79 -7.25,-5.8 -16.01,-15.66 -26.21,-27.17 2.62,-3.05 6.1,-6.9 10.45,-11.5 2.9,-3.67 4.35,-8.14 4.35,-13.35l0 -93.93c0,-14.77 -14.34,-27.41 -30.07,-27.41 -7.92,0 -18.93,1.45 -25.66,6.41 1.67,-7.62 7.47,-19.58 16.53,-19.58 6.08,0 11.47,4.75 20.48,4.75 14.52,0 25.25,-9.13 32.22,-32.78 -3.2,2.16 -6.97,3.24 -11.31,3.24 -5.52,0 -11.78,-1.85 -18.75,-5.52 -4.63,-2.47 -9.13,-5.52 -13.51,-9.22 -4.07,7.68 -11.75,16.43 -23.06,26.24 -1.76,1.54 -4.38,3.55 -7.87,5.98l0 65.5c10.76,-6.45 18.87,-9.68 24.39,-9.68 10.77,0 18.6,7.15 23.53,16.06l0 63.03c0,12.58 -4.93,22.88 -14.8,30.84 -5.24,4.32 -12.64,9.37 -22.23,15.2 0,6.45 8.45,16.9 25.28,31.3 20.63,17.82 41.66,26.71 63.16,26.71 7.86,0 15.11,-1.02 21.8,-3.12 9.1,-2.84 17.08,-7.65 23.96,-14.37 10.73,-10.45 16.1,-22.57 16.1,-36.39 0,-20.53 -17.24,-28.15 -34.42,-28.15zm156.96 -174.57c-5.52,0 -11.75,-1.85 -18.75,-5.52 -4.62,-2.46 -9.13,-5.52 -13.5,-9.22 -3.18,5.83 -9.44,13.14 -18.72,21.71 -2.9,2.78 -7.13,6.54 -12.65,11.13l0 0.65 -0.12 0.13 0 64.75c3.55,-1.57 7.77,-3.82 10.98,-4.96 12.67,-4.47 45.58,-5.37 47.06,12.95 0.15,2.22 0.09,4.32 -0.19,6.32 -5.24,29.6 -61.12,29.82 -85.35,13.51l14.83 -33.8 -0.06 -0.28 0.21 -0.49c-4.13,-11.66 -15.2,-25.72 -27.81,-31.02 -16.93,-7.06 -39.56,-10.24 -57.97,-2.62l-0.56 -0.44c-7.34,-5.45 -17.21,-9.49 -19.74,-15.66 2.13,-1.23 10.21,-4.41 14.74,-3.55 1.58,0.28 3.24,0.71 5,1.21 6.57,1.88 14.06,4.71 21.28,5.58 6.75,0.8 12.61,-0.43 18.65,-6.23 5.43,-5.12 9.99,-14.34 13.2,-26.61l-0.09 0.06 0.21 -0.83c-3.2,2.15 -6.96,3.23 -11.31,3.23 -5.52,0 -11.78,-1.85 -18.75,-5.51 -4.63,-2.47 -9.13,-5.52 -13.51,-9.23 -1.54,3 -4.78,6.88 -9.68,11.72 -4.35,4.23 -9.96,9.16 -16.87,14.84 -4.65,3.7 -11.5,8.97 -20.47,15.81l0.52 0.25 -0.65 0.49c11.97,5.56 14.96,12.59 21.62,23.84 -1.48,1.23 -3.05,2.34 -4.41,3.73 -10.92,11.16 -16.13,21.99 -18.32,35.28 -0.98,5.61 -1.42,11.65 -1.51,18.35 -0.21,14.12 4.5,27.07 13.51,39.07 2.16,2.83 4.32,5.33 6.41,7.4 6.51,6.35 13.45,8.76 20.17,8.05 7.71,-0.84 15.14,-5.83 21.37,-13.7 5.33,-6.78 8.36,-13.96 9.59,-21.58 0.52,-2.99 0.77,-6.01 0.77,-9.1 0,-9.83 -0.68,-19.36 -6.32,-26.02 -5.83,-6.88 -16.35,-10.18 -25.41,-6.29 -2.13,0.92 -4.2,2.22 -6.08,3.94 -4.19,3.89 -6.66,8.61 -7.34,13.05 -1.54,8.08 2.78,15.57 13.42,16.16 0.34,0.03 0.71,0.03 1.08,0.03 2.03,0.03 4.38,-0.77 7.86,-2.9 4.87,-5.68 9.22,-5.27 10.08,-5.27 4.04,0 8.82,4.68 8.3,9.49 -0.4,1.76 -1.54,3.49 -3.76,5 -3.73,3.05 -11.57,7.15 -23.56,7.15l-0.46 0c-12.62,-0.12 -26.22,-14.46 -26.22,-25.84 0,-2.47 0.19,-4.81 0.56,-7 1.26,-7.06 4.35,-12.76 8.66,-17.11 4.26,-4.13 10.12,-7.74 17.46,-9.96 4.65,-1.39 9.93,-2.19 15.79,-2.19 18,0 31.67,4.87 41.26,14.77 2.86,3.05 7,6.63 9.89,13.26l-18.07 44.99 0.13 0.12 -0.25 0.62c3.76,4.59 9.47,8.82 19.61,12.73 10.18,3.83 19.18,5.77 27.01,5.77 36.3,0 64.45,-25.81 70.62,-61.4 0.06,-0.37 0.12,-0.77 0.19,-1.14l0 0c0.8,-4.68 1.2,-9.52 1.2,-14.49 0,-36.05 -30.99,-60.16 -63.83,-42.92 1.79,-7.16 7.98,-19.92 15.82,-19.92 5.45,0 12.64,5.95 22.2,5.95 14.8,0 25.41,-9.13 31.79,-32.75l-0.09 0.06 0.21 -0.83c-3.17,2.16 -6.81,3.24 -10.88,3.24l0 -0.01zm141.26 40c-9,-0.9 -18.75,0.4 -26.67,3.36 -1.14,0.43 -2.25,0.89 -3.3,1.39 0.59,-2.69 1.73,-5.92 3.3,-9.01 2.93,-5.7 7.37,-10.88 12.52,-10.88 6.04,0 13.85,4.9 21.62,4.9 12.98,0 22.48,-8.05 28.89,-27.48 0.62,-1.82 1.17,-3.76 1.73,-5.79 -0.56,0.43 -1.14,0.86 -1.73,1.23 -2.99,1.94 -6.2,2.9 -9.59,2.9 -5.52,0 -11.62,-2.01 -18.29,-5.98 -3.48,-2.16 -7.86,-5.37 -13.07,-9.69 -3.21,6.23 -9.44,13.6 -18.75,22.33 -1.05,1.02 -2.1,2.13 -3.33,3.36 -2.13,2.19 -4.75,4.78 -8.45,7.77l0 58.99c2.34,-1.38 5.24,-2.46 8.45,-3.3 18.84,-4.78 48.91,0.28 47.27,20.76 -1.48,18.68 -24.2,30.46 -47.27,30.89 -17.98,0.34 -36.17,-6.22 -44.71,-21.8 6.38,-8.57 11.53,-16.25 14.15,-21.61 2.59,-5.37 3.92,-9.9 3.92,-13.57 0,-18.97 -10.98,-27.82 -24.18,-29.3 -11.35,-1.29 -24.11,1.61 -30.68,5.8 1.7,-7.77 6.85,-20.32 15.79,-20.32 6.47,0 11.53,4.75 20.63,4.75 14.74,0 25.13,-9.29 31.45,-32.29 -3.21,2.13 -6.78,3.21 -10.76,3.21 -5.52,0 -11.69,-2.01 -18.6,-5.92 -4.56,-2.59 -9.06,-5.83 -13.35,-9.75 -2.9,5.77 -9,12.98 -18.29,21.49 -2.92,2.78 -6.96,6.29 -12.21,10.58l0 60.38c8.85,-3.3 18.75,-6.05 29.02,-5.12 24.39,2.22 14.68,20.78 0.19,27.32 -1.36,0.62 -2.9,1.2 -4.57,1.79 -5.83,1.97 -13.63,3.7 -23.34,5.12 5.24,17.17 14.77,30.84 28.55,40.98 13.79,10.11 29.27,15.17 46.38,15.17 3.67,0 7.22,-0.24 10.61,-0.77 17.92,-2.71 32.26,-12.58 42.99,-29.6 11.81,-18.29 18.93,-44.28 12.92,-66.27 -4.47,-16.44 -14.84,-24.58 -29.24,-26.03l0 0.01zm119.22 -22.79c0,-2.74 -1.7,-7.52 -12.74,-14.28 -19.45,-11.96 -29.48,-18.13 -30.03,-18.44 -7.86,6.14 -16,12.92 -24.42,20.26 -7.87,7 -13.11,11.6 -15.67,13.79 -0.92,0.77 -1.51,1.26 -1.76,1.42l1.33 5.98 0.43 -0.25c19.34,-10.61 42.83,-6.17 58.96,7.37 12.61,10.58 17.27,25.87 17.27,37.53 0,9.53 -7.55,17.82 -22.67,24.89 -15.07,7.06 -22.63,13.19 -22.63,18.4 0,10.43 5.89,20.33 17.64,29.7 11.75,9.34 17.91,16.04 18.5,20.01 3.21,0 7.28,-2.15 12.21,-6.44 4.9,-4.26 3.58,-9.38 3.58,-15.17l0 -124.77 0 0zm-7.93 100.53l-0.12 -22.61c-3.42,0.53 -9.74,3.06 -10.42,8.05 -0.28,6.48 4.81,13.02 10.54,14.56l0 0z"/>
 </g>
</svg>
